<?xml version="1.0" encoding="UTF-8"?>
<svg xmlns="http://www.w3.org/2000/svg" xmlns:xlink="http://www.w3.org/1999/xlink" width="115px" height="60px" viewBox="0 0 115 60" version="1.1">
<defs>
<clipPath id="clip1">
  <path d="M 17.589844 27.574219 L 97.015625 27.574219 L 97.015625 32.382812 L 17.589844 32.382812 Z M 17.589844 27.574219 "/>
</clipPath>
</defs>
<g id="surface1">
<path style=" stroke:none;fill-rule:nonzero;fill:rgb(60.784316%,1.960784%,58.431375%);fill-opacity:1;" d="M 83.902344 37.65625 C 83.796875 37.476562 83.71875 37.222656 83.664062 36.894531 C 83.617188 36.5625 83.578125 36.210938 83.558594 35.824219 C 83.542969 35.445312 83.527344 35.046875 83.507812 34.648438 C 83.488281 34.25 83.429688 33.863281 83.332031 33.496094 C 83.117188 32.769531 82.765625 32.167969 82.277344 31.695312 C 81.785156 31.21875 81.191406 30.828125 80.492188 30.53125 C 79.796875 30.230469 78.988281 29.992188 78.082031 29.820312 C 77.171875 29.644531 76.191406 29.484375 75.144531 29.335938 C 77.871094 29.082031 79.96875 28.578125 81.433594 27.820312 C 82.902344 27.066406 83.640625 26.113281 83.640625 24.960938 C 83.640625 24.25 83.351562 23.613281 82.773438 23.046875 C 82.199219 22.480469 81.421875 22 80.4375 21.621094 C 79.464844 21.242188 78.296875 20.945312 76.949219 20.746094 C 75.605469 20.546875 74.183594 20.445312 72.675781 20.445312 L 57.882812 20.445312 L 57.882812 20.882812 L 62.402344 20.882812 L 62.402344 38.398438 L 57.882812 38.398438 L 57.882812 38.835938 L 72 38.835938 L 72 38.398438 L 67.488281 38.398438 L 67.488281 29.449219 L 71.839844 29.449219 C 72.398438 29.449219 72.992188 29.5 73.621094 29.601562 C 74.246094 29.703125 74.835938 29.890625 75.378906 30.175781 C 75.921875 30.460938 76.394531 30.851562 76.796875 31.351562 C 77.199219 31.851562 77.488281 32.496094 77.664062 33.28125 C 77.765625 33.753906 77.828125 34.238281 77.839844 34.730469 C 77.859375 35.226562 77.914062 35.699219 78 36.15625 C 78.089844 36.609375 78.246094 37.03125 78.476562 37.414062 C 78.703125 37.796875 79.058594 38.125 79.546875 38.398438 C 80.003906 38.652344 80.535156 38.828125 81.148438 38.914062 C 81.761719 39.007812 82.421875 39.054688 83.117188 39.054688 C 83.710938 39.054688 84.308594 39.023438 84.902344 38.960938 C 85.492188 38.898438 86.046875 38.820312 86.554688 38.726562 C 87.0625 38.632812 87.496094 38.539062 87.863281 38.4375 C 88.230469 38.339844 88.5 38.242188 88.675781 38.148438 C 88.78125 38.09375 88.832031 38.042969 88.832031 37.988281 C 88.832031 37.933594 88.78125 37.90625 88.675781 37.90625 C 88.605469 37.90625 88.503906 37.925781 88.367188 37.960938 C 87.667969 38.210938 86.878906 38.34375 86.003906 38.34375 C 84.921875 38.34375 84.222656 38.117188 83.902344 37.65625 Z M 67.488281 29.007812 L 67.488281 20.882812 L 72.675781 20.882812 C 76.664062 20.882812 78.65625 22.078125 78.65625 24.46875 L 78.65625 25.453125 C 78.65625 27.820312 76.664062 29.007812 72.675781 29.007812 Z M 67.488281 29.007812 "/>
<path style=" stroke:none;fill-rule:nonzero;fill:rgb(60.784316%,1.960784%,58.431375%);fill-opacity:1;" d="M 51.457031 38.046875 C 51.351562 37.859375 51.277344 37.601562 51.21875 37.265625 C 51.171875 36.933594 51.132812 36.570312 51.113281 36.179688 C 51.097656 35.789062 51.082031 35.394531 51.0625 34.992188 C 51.039062 34.578125 50.980469 34.1875 50.875 33.820312 C 50.660156 33.078125 50.304688 32.464844 49.804688 31.984375 C 49.308594 31.503906 48.707031 31.109375 47.992188 30.804688 C 47.285156 30.5 46.46875 30.257812 45.546875 30.078125 C 44.621094 29.902344 43.625 29.742188 42.558594 29.589844 C 45.335938 29.335938 47.464844 28.820312 48.957031 28.050781 C 50.449219 27.285156 51.195312 26.3125 51.195312 25.148438 C 51.195312 24.421875 50.898438 23.773438 50.3125 23.199219 C 49.730469 22.625 48.941406 22.144531 47.941406 21.757812 C 46.945312 21.367188 45.769531 21.070312 44.398438 20.863281 C 43.03125 20.660156 41.585938 20.554688 40.058594 20.554688 L 25.03125 20.554688 L 25.03125 21 L 29.617188 21 L 29.617188 38.792969 L 25.03125 38.792969 L 25.03125 39.238281 L 39.367188 39.238281 L 39.367188 38.792969 L 34.785156 38.792969 L 34.785156 29.707031 L 39.207031 29.707031 C 39.773438 29.707031 40.378906 29.757812 41.015625 29.859375 C 41.65625 29.960938 42.25 30.15625 42.800781 30.445312 C 43.351562 30.726562 43.832031 31.128906 44.238281 31.636719 C 44.648438 32.148438 44.941406 32.796875 45.121094 33.597656 C 45.226562 34.082031 45.289062 34.570312 45.304688 35.070312 C 45.328125 35.570312 45.378906 36.054688 45.464844 36.515625 C 45.554688 36.976562 45.714844 37.402344 45.945312 37.792969 C 46.175781 38.183594 46.539062 38.515625 47.039062 38.792969 C 47.496094 39.054688 48.042969 39.226562 48.660156 39.320312 C 49.285156 39.414062 49.949219 39.460938 50.664062 39.460938 C 51.269531 39.460938 51.871094 39.429688 52.476562 39.367188 C 53.082031 39.300781 53.636719 39.222656 54.152344 39.132812 C 54.667969 39.039062 55.113281 38.941406 55.484375 38.835938 C 55.855469 38.734375 56.132812 38.636719 56.308594 38.546875 C 56.417969 38.492188 56.472656 38.433594 56.472656 38.378906 C 56.472656 38.320312 56.417969 38.296875 56.308594 38.296875 C 56.238281 38.296875 56.132812 38.316406 55.992188 38.351562 C 55.277344 38.609375 54.480469 38.742188 53.589844 38.742188 C 52.488281 38.742188 51.777344 38.507812 51.457031 38.046875 Z M 34.785156 29.257812 L 34.785156 21 L 40.058594 21 C 44.105469 21 46.132812 22.21875 46.132812 24.644531 L 46.132812 25.644531 C 46.132812 28.054688 44.105469 29.257812 40.058594 29.257812 Z M 34.785156 29.257812 "/>
<g clip-path="url(#clip1)" clip-rule="nonzero">
<path style=" stroke:none;fill-rule:nonzero;fill:rgb(98.039216%,98.039216%,98.039216%);fill-opacity:1;" d="M 17.589844 27.574219 L 97.035156 27.574219 L 97.035156 32.382812 L 17.589844 32.382812 Z M 17.589844 27.574219 "/>
</g>
<path style=" stroke:none;fill-rule:nonzero;fill:rgb(40.000001%,1.960784%,22.745098%);fill-opacity:1;" d="M 24.972656 30.773438 L 24.417969 30.351562 L 23.804688 30.351562 L 23.804688 30.773438 L 23.132812 30.773438 L 23.132812 29.265625 L 24.382812 29.265625 C 24.636719 29.265625 24.859375 29.289062 25.050781 29.332031 C 25.238281 29.375 25.382812 29.445312 25.484375 29.523438 C 25.585938 29.605469 25.636719 29.703125 25.636719 29.8125 C 25.636719 29.921875 25.585938 30.019531 25.484375 30.101562 C 25.382812 30.179688 25.238281 30.242188 25.042969 30.289062 L 25.691406 30.773438 Z M 24.964844 29.8125 C 24.964844 29.726562 24.910156 29.664062 24.804688 29.617188 C 24.699219 29.570312 24.550781 29.550781 24.351562 29.550781 L 23.804688 29.550781 L 23.804688 30.074219 L 24.351562 30.074219 C 24.550781 30.074219 24.699219 30.054688 24.804688 30.007812 C 24.910156 29.960938 24.964844 29.898438 24.964844 29.8125 Z M 24.964844 29.8125 "/>
<path style=" stroke:none;fill-rule:nonzero;fill:rgb(40.000001%,1.960784%,22.745098%);fill-opacity:1;" d="M 28.875 30.796875 C 28.460938 30.796875 28.144531 30.738281 27.914062 30.621094 C 27.679688 30.5 27.566406 30.332031 27.566406 30.109375 L 27.566406 29.265625 L 28.234375 29.265625 L 28.234375 30.097656 C 28.234375 30.367188 28.449219 30.503906 28.878906 30.503906 C 29.089844 30.503906 29.25 30.46875 29.359375 30.40625 C 29.46875 30.335938 29.523438 30.234375 29.523438 30.097656 L 29.523438 29.265625 L 30.183594 29.265625 L 30.183594 30.109375 C 30.183594 30.332031 30.070312 30.5 29.839844 30.621094 C 29.609375 30.738281 29.289062 30.796875 28.875 30.796875 Z M 28.875 30.796875 "/>
<path style=" stroke:none;fill-rule:nonzero;fill:rgb(40.000001%,1.960784%,22.745098%);fill-opacity:1;" d="M 33.65625 30.796875 C 33.359375 30.796875 33.09375 30.761719 32.855469 30.699219 C 32.613281 30.628906 32.425781 30.539062 32.292969 30.421875 C 32.15625 30.304688 32.089844 30.164062 32.089844 30.019531 C 32.089844 29.867188 32.15625 29.734375 32.292969 29.617188 C 32.425781 29.5 32.613281 29.40625 32.855469 29.339844 C 33.09375 29.273438 33.359375 29.238281 33.660156 29.238281 C 33.90625 29.238281 34.132812 29.261719 34.332031 29.3125 C 34.539062 29.355469 34.707031 29.421875 34.84375 29.507812 L 34.414062 29.710938 C 34.21875 29.59375 33.980469 29.535156 33.691406 29.535156 C 33.511719 29.535156 33.351562 29.5625 33.214844 29.601562 C 33.066406 29.640625 32.964844 29.695312 32.878906 29.769531 C 32.804688 29.84375 32.769531 29.925781 32.769531 30.019531 C 32.769531 30.113281 32.804688 30.195312 32.878906 30.269531 C 32.964844 30.34375 33.066406 30.398438 33.214844 30.4375 C 33.351562 30.484375 33.511719 30.503906 33.691406 30.503906 C 33.980469 30.503906 34.21875 30.4375 34.414062 30.320312 L 34.84375 30.527344 C 34.707031 30.617188 34.539062 30.683594 34.332031 30.734375 C 34.128906 30.777344 33.902344 30.796875 33.65625 30.796875 Z M 33.65625 30.796875 "/>
<path style=" stroke:none;fill-rule:nonzero;fill:rgb(40.000001%,1.960784%,22.745098%);fill-opacity:1;" d="M 39.367188 29.265625 L 39.367188 30.773438 L 38.703125 30.773438 L 38.703125 30.15625 L 37.386719 30.15625 L 37.386719 30.773438 L 36.714844 30.773438 L 36.714844 29.265625 L 37.386719 29.265625 L 37.386719 29.859375 L 38.703125 29.859375 L 38.703125 29.265625 Z M 39.367188 29.265625 "/>
<path style=" stroke:none;fill-rule:nonzero;fill:rgb(40.000001%,1.960784%,22.745098%);fill-opacity:1;" d="M 41.472656 29.265625 L 42.148438 29.265625 L 42.148438 30.773438 L 41.472656 30.773438 Z M 41.472656 29.265625 "/>
<path style=" stroke:none;fill-rule:nonzero;fill:rgb(40.000001%,1.960784%,22.745098%);fill-opacity:1;" d="M 46.09375 30.773438 L 45.542969 30.351562 L 44.925781 30.351562 L 44.925781 30.773438 L 44.253906 30.773438 L 44.253906 29.265625 L 45.503906 29.265625 C 45.757812 29.265625 45.980469 29.289062 46.171875 29.332031 C 46.359375 29.375 46.503906 29.445312 46.605469 29.523438 C 46.710938 29.605469 46.757812 29.703125 46.757812 29.8125 C 46.757812 29.921875 46.710938 30.019531 46.605469 30.101562 C 46.503906 30.179688 46.359375 30.242188 46.167969 30.289062 L 46.8125 30.773438 Z M 46.085938 29.8125 C 46.085938 29.726562 46.035156 29.664062 45.929688 29.617188 C 45.824219 29.570312 45.671875 29.550781 45.472656 29.550781 L 44.925781 29.550781 L 44.925781 30.074219 L 45.472656 30.074219 C 45.671875 30.074219 45.824219 30.054688 45.929688 30.007812 C 46.035156 29.960938 46.085938 29.898438 46.085938 29.8125 Z M 46.085938 29.8125 "/>
<path style=" stroke:none;fill-rule:nonzero;fill:rgb(40.000001%,1.960784%,22.745098%);fill-opacity:1;" d="M 50.617188 30.449219 L 49.28125 30.449219 L 49.023438 30.773438 L 48.335938 30.773438 L 49.625 29.265625 L 50.289062 29.265625 L 51.574219 30.773438 L 50.875 30.773438 Z M 50.40625 30.1875 L 49.949219 29.609375 L 49.488281 30.1875 Z M 50.40625 30.1875 "/>
<path style=" stroke:none;fill-rule:nonzero;fill:rgb(40.000001%,1.960784%,22.745098%);fill-opacity:1;" d="M 57.730469 30.773438 L 57.175781 30.351562 L 56.566406 30.351562 L 56.566406 30.773438 L 55.894531 30.773438 L 55.894531 29.265625 L 57.144531 29.265625 C 57.398438 29.265625 57.621094 29.289062 57.8125 29.332031 C 57.996094 29.375 58.144531 29.445312 58.246094 29.523438 C 58.347656 29.605469 58.398438 29.703125 58.398438 29.8125 C 58.398438 29.921875 58.347656 30.019531 58.246094 30.101562 C 58.144531 30.179688 57.996094 30.242188 57.804688 30.289062 L 58.449219 30.773438 Z M 57.726562 29.8125 C 57.726562 29.726562 57.675781 29.664062 57.566406 29.617188 C 57.460938 29.570312 57.308594 29.550781 57.113281 29.550781 L 56.566406 29.550781 L 56.566406 30.074219 L 57.113281 30.074219 C 57.308594 30.074219 57.460938 30.054688 57.566406 30.007812 C 57.675781 29.960938 57.726562 29.898438 57.726562 29.8125 Z M 57.726562 29.8125 "/>
<path style=" stroke:none;fill-rule:nonzero;fill:rgb(40.000001%,1.960784%,22.745098%);fill-opacity:1;" d="M 62.253906 30.449219 L 60.917969 30.449219 L 60.65625 30.773438 L 59.972656 30.773438 L 61.265625 29.265625 L 61.917969 29.265625 L 63.214844 30.773438 L 62.515625 30.773438 Z M 62.039062 30.1875 L 61.585938 29.609375 L 61.125 30.1875 Z M 62.039062 30.1875 "/>
<path style=" stroke:none;fill-rule:nonzero;fill:rgb(40.000001%,1.960784%,22.745098%);fill-opacity:1;" d="M 65.535156 29.550781 L 64.609375 29.550781 L 64.609375 29.265625 L 67.132812 29.265625 L 67.132812 29.550781 L 66.210938 29.550781 L 66.210938 30.773438 L 65.535156 30.773438 Z M 65.535156 29.550781 "/>
<path style=" stroke:none;fill-rule:nonzero;fill:rgb(40.000001%,1.960784%,22.745098%);fill-opacity:1;" d="M 71.558594 29.265625 L 71.558594 30.773438 L 71.011719 30.773438 L 69.570312 29.859375 L 69.570312 30.773438 L 68.910156 30.773438 L 68.910156 29.265625 L 69.46875 29.265625 L 70.902344 30.179688 L 70.902344 29.265625 Z M 71.558594 29.265625 "/>
<path style=" stroke:none;fill-rule:nonzero;fill:rgb(40.000001%,1.960784%,22.745098%);fill-opacity:1;" d="M 75.574219 30.449219 L 74.238281 30.449219 L 73.980469 30.773438 L 73.296875 30.773438 L 74.582031 29.265625 L 75.246094 29.265625 L 76.53125 30.773438 L 75.832031 30.773438 Z M 75.363281 30.1875 L 74.90625 29.609375 L 74.445312 30.1875 Z M 75.363281 30.1875 "/>
<path style=" stroke:none;fill-rule:nonzero;fill:rgb(40.000001%,1.960784%,22.745098%);fill-opacity:1;" d="M 79.644531 30.234375 L 79.644531 30.773438 L 78.976562 30.773438 L 78.976562 30.234375 L 77.855469 29.265625 L 78.570312 29.265625 L 79.335938 29.9375 L 80.109375 29.265625 L 80.765625 29.265625 Z M 79.644531 30.234375 "/>
<path style=" stroke:none;fill-rule:nonzero;fill:rgb(40.000001%,1.960784%,22.745098%);fill-opacity:1;" d="M 84.375 30.449219 L 83.035156 30.449219 L 82.777344 30.773438 L 82.089844 30.773438 L 83.378906 29.265625 L 84.039062 29.265625 L 85.332031 30.773438 L 84.632812 30.773438 Z M 84.160156 30.1875 L 83.707031 29.609375 L 83.246094 30.1875 Z M 84.160156 30.1875 "/>
<path style=" stroke:none;fill-rule:nonzero;fill:rgb(40.000001%,1.960784%,22.745098%);fill-opacity:1;" d="M 88.113281 30.179688 L 87.722656 30.390625 L 87.722656 30.773438 L 87.054688 30.773438 L 87.054688 29.265625 L 87.722656 29.265625 L 87.722656 29.96875 L 89.003906 29.265625 L 89.746094 29.265625 L 88.546875 29.9375 L 89.820312 30.773438 L 89.035156 30.773438 Z M 88.113281 30.179688 "/>
<path style=" stroke:none;fill-rule:nonzero;fill:rgb(40.000001%,1.960784%,22.745098%);fill-opacity:1;" d="M 93.773438 30.492188 L 93.773438 30.773438 L 91.535156 30.773438 L 91.535156 29.265625 L 93.714844 29.265625 L 93.714844 29.546875 L 92.203125 29.546875 L 92.203125 29.875 L 93.542969 29.875 L 93.542969 30.148438 L 92.203125 30.148438 L 92.203125 30.492188 Z M 93.773438 30.492188 "/>
<path style=" stroke:none;fill-rule:nonzero;fill:rgb(40.000001%,1.960784%,22.745098%);fill-opacity:1;" d="M 42.242188 41.488281 L 42.980469 41.488281 C 43.167969 41.488281 43.339844 41.507812 43.488281 41.546875 C 43.640625 41.585938 43.75 41.644531 43.832031 41.714844 C 43.914062 41.789062 43.953125 41.871094 43.953125 41.960938 C 43.953125 42.054688 43.914062 42.140625 43.832031 42.207031 C 43.75 42.28125 43.640625 42.335938 43.488281 42.375 C 43.339844 42.417969 43.167969 42.4375 42.980469 42.4375 L 42.242188 42.4375 Z M 42.96875 42.347656 C 43.128906 42.347656 43.265625 42.335938 43.386719 42.300781 C 43.503906 42.265625 43.597656 42.222656 43.664062 42.164062 C 43.730469 42.105469 43.765625 42.035156 43.765625 41.960938 C 43.765625 41.882812 43.730469 41.816406 43.664062 41.757812 C 43.597656 41.699219 43.503906 41.65625 43.386719 41.621094 C 43.265625 41.59375 43.128906 41.570312 42.96875 41.570312 L 42.433594 41.570312 L 42.433594 42.347656 Z M 42.96875 42.347656 "/>
<path style=" stroke:none;fill-rule:nonzero;fill:rgb(40.000001%,1.960784%,22.745098%);fill-opacity:1;" d="M 47.484375 42.347656 L 47.484375 42.4375 L 46.195312 42.4375 L 46.195312 41.488281 L 47.441406 41.488281 L 47.441406 41.570312 L 46.390625 41.570312 L 46.390625 41.910156 L 47.328125 41.910156 L 47.328125 41.992188 L 46.390625 41.992188 L 46.390625 42.347656 Z M 47.484375 42.347656 "/>
<path style=" stroke:none;fill-rule:nonzero;fill:rgb(40.000001%,1.960784%,22.745098%);fill-opacity:1;" d="M 51.253906 41.488281 L 50.449219 42.4375 L 50.265625 42.4375 L 49.457031 41.488281 L 49.664062 41.488281 L 50.355469 42.308594 L 51.066406 41.488281 Z M 51.253906 41.488281 "/>
<path style=" stroke:none;fill-rule:nonzero;fill:rgb(40.000001%,1.960784%,22.745098%);fill-opacity:1;" d="M 54.65625 42.347656 L 54.65625 42.4375 L 53.367188 42.4375 L 53.367188 41.488281 L 54.613281 41.488281 L 54.613281 41.570312 L 53.5625 41.570312 L 53.5625 41.910156 L 54.5 41.910156 L 54.5 41.992188 L 53.5625 41.992188 L 53.5625 42.347656 Z M 54.65625 42.347656 "/>
<path style=" stroke:none;fill-rule:nonzero;fill:rgb(40.000001%,1.960784%,22.745098%);fill-opacity:1;" d="M 56.917969 41.488281 L 57.113281 41.488281 L 57.113281 42.347656 L 58.125 42.347656 L 58.125 42.4375 L 56.917969 42.4375 Z M 56.917969 41.488281 "/>
<path style=" stroke:none;fill-rule:nonzero;fill:rgb(40.000001%,1.960784%,22.745098%);fill-opacity:1;" d="M 61.054688 42.441406 C 60.871094 42.441406 60.707031 42.421875 60.558594 42.382812 C 60.417969 42.339844 60.304688 42.28125 60.21875 42.207031 C 60.132812 42.132812 60.09375 42.050781 60.09375 41.960938 C 60.09375 41.871094 60.132812 41.789062 60.21875 41.714844 C 60.304688 41.640625 60.417969 41.582031 60.558594 41.542969 C 60.707031 41.5 60.871094 41.480469 61.054688 41.480469 C 61.230469 41.480469 61.394531 41.5 61.535156 41.542969 C 61.679688 41.582031 61.796875 41.640625 61.882812 41.714844 C 61.96875 41.789062 62.007812 41.871094 62.007812 41.960938 C 62.007812 42.050781 61.96875 42.132812 61.882812 42.207031 C 61.796875 42.28125 61.679688 42.339844 61.535156 42.382812 C 61.394531 42.421875 61.230469 42.441406 61.054688 42.441406 Z M 61.054688 42.351562 C 61.199219 42.351562 61.324219 42.335938 61.441406 42.304688 C 61.558594 42.269531 61.644531 42.222656 61.714844 42.164062 C 61.773438 42.105469 61.808594 42.035156 61.808594 41.960938 C 61.808594 41.882812 61.773438 41.820312 61.714844 41.757812 C 61.644531 41.699219 61.558594 41.65625 61.441406 41.621094 C 61.324219 41.585938 61.199219 41.566406 61.054688 41.566406 C 60.910156 41.566406 60.777344 41.585938 60.660156 41.621094 C 60.542969 41.65625 60.449219 41.699219 60.382812 41.757812 C 60.320312 41.820312 60.285156 41.882812 60.285156 41.960938 C 60.285156 42.035156 60.320312 42.105469 60.382812 42.164062 C 60.449219 42.222656 60.542969 42.269531 60.660156 42.304688 C 60.777344 42.335938 60.910156 42.351562 61.054688 42.351562 Z M 61.054688 42.351562 "/>
<path style=" stroke:none;fill-rule:nonzero;fill:rgb(40.000001%,1.960784%,22.745098%);fill-opacity:1;" d="M 64.925781 41.488281 C 65.160156 41.488281 65.339844 41.519531 65.46875 41.570312 C 65.605469 41.632812 65.671875 41.710938 65.671875 41.8125 C 65.671875 41.914062 65.605469 41.992188 65.46875 42.050781 C 65.339844 42.109375 65.160156 42.132812 64.925781 42.132812 L 64.441406 42.132812 L 64.441406 42.4375 L 64.246094 42.4375 L 64.246094 41.488281 Z M 64.921875 42.046875 C 65.105469 42.046875 65.238281 42.027344 65.335938 41.988281 C 65.433594 41.949219 65.476562 41.882812 65.476562 41.8125 C 65.476562 41.738281 65.433594 41.679688 65.335938 41.636719 C 65.238281 41.59375 65.105469 41.570312 64.921875 41.570312 L 64.441406 41.570312 L 64.441406 42.046875 Z M 64.921875 42.046875 "/>
<path style=" stroke:none;fill-rule:nonzero;fill:rgb(40.000001%,1.960784%,22.745098%);fill-opacity:1;" d="M 69.203125 42.347656 L 69.203125 42.4375 L 67.921875 42.4375 L 67.921875 41.488281 L 69.167969 41.488281 L 69.167969 41.570312 L 68.117188 41.570312 L 68.117188 41.910156 L 69.054688 41.910156 L 69.054688 41.992188 L 68.117188 41.992188 L 68.117188 42.347656 Z M 69.203125 42.347656 "/>
<path style=" stroke:none;fill-rule:nonzero;fill:rgb(40.000001%,1.960784%,22.745098%);fill-opacity:1;" d="M 72.710938 42.4375 L 72.296875 42.128906 C 72.25 42.132812 72.199219 42.132812 72.148438 42.132812 L 71.660156 42.132812 L 71.660156 42.4375 L 71.46875 42.4375 L 71.46875 41.488281 L 72.148438 41.488281 C 72.382812 41.488281 72.558594 41.519531 72.695312 41.570312 C 72.824219 41.632812 72.894531 41.710938 72.894531 41.8125 C 72.894531 41.882812 72.855469 41.949219 72.785156 42 C 72.710938 42.050781 72.613281 42.089844 72.476562 42.109375 L 72.921875 42.4375 Z M 72.148438 42.050781 C 72.324219 42.050781 72.460938 42.03125 72.558594 41.988281 C 72.652344 41.949219 72.699219 41.882812 72.699219 41.8125 C 72.699219 41.738281 72.652344 41.679688 72.558594 41.636719 C 72.460938 41.59375 72.324219 41.570312 72.148438 41.570312 L 71.660156 41.570312 L 71.660156 42.050781 Z M 72.148438 42.050781 "/>
</g>
</svg>
